HIERARCHY
ROOT Root
{
  OFFSET 0.0 0.0 0.0
  CHANNELS 6 Xposition Yposition Zposition Zrotation Yrotation Xrotation
  JOINT Hips
  {
    OFFSET 0.0 100.0 0.0
    CHANNELS 6 Xposition Yposition Zposition Zrotation Yrotation Xrotation
    JOINT Spine1
    {
      OFFSET 5.003913 -0.037094 -0.013727
      CHANNELS 3 Zrotation Yrotation Xrotation
      JOINT Spine2
      {
        OFFSET 7.125363 -1e-06 0.0
        CHANNELS 3 Zrotation Yrotation Xrotation
        JOINT Chest
        {
          OFFSET 7.594027 1e-06 0.0
          CHANNELS 3 Zrotation Yrotation Xrotation
          JOINT Neck1
          {
            OFFSET 26.313086 -0.460272 -0.181672
            CHANNELS 3 Zrotation Yrotation Xrotation
            JOINT Neck2
            {
              OFFSET 8.045911 0.0 0.0
              CHANNELS 3 Zrotation Yrotation Xrotation
              JOINT Head
              {
                OFFSET 6.432774 0.0 0.0
                CHANNELS 3 Zrotation Yrotation Xrotation
                JOINT HeadEnd
                {
                  OFFSET 16.169773 0.06451 0.00362
                  CHANNELS 3 Zrotation Yrotation Xrotation
                }
                JOINT Jaw
                {
                  OFFSET 0.108741 3.12938 0.002639
                  CHANNELS 3 Zrotation Yrotation Xrotation
                }
                JOINT LeftEye
                {
                  OFFSET 4.45173 8.166359 3.206392
                  CHANNELS 3 Zrotation Yrotation Xrotation
                }
                JOINT RightEye
                {
                  OFFSET 4.436895 8.135758 -3.222429
                  CHANNELS 3 Zrotation Yrotation Xrotation
                }
              }
            }
          }
          JOINT LeftShoulder
          {
            OFFSET 23.218927 5.195579 1.621656
            CHANNELS 3 Zrotation Yrotation Xrotation
            JOINT LeftArm
            {
              OFFSET 15.902118 2e-06 -2e-06
              CHANNELS 3 Zrotation Yrotation Xrotation
              JOINT LeftForeArm
              {
                OFFSET 28.739307 0.0 -1e-06
                CHANNELS 3 Zrotation Yrotation Xrotation
                JOINT LeftHand
                {
                  OFFSET 27.093981 -4e-06 0.0
                  CHANNELS 3 Zrotation Yrotation Xrotation
                  JOINT LeftHandThumb1
                  {
                    OFFSET 2.276781 3.380274 0.83384
                    CHANNELS 3 Zrotation Yrotation Xrotation
                    JOINT LeftHandThumb2
                    {
                      OFFSET 4.705309 -1e-06 -1e-06
                      CHANNELS 3 Zrotation Yrotation Xrotation
                      JOINT LeftHandThumb3
                      {
                        OFFSET 2.798515 0.0 3e-06
                        CHANNELS 3 Zrotation Yrotation Xrotation
                        JOINT LeftHandThumbEnd
                        {
                          OFFSET 3.180793 4e-06 -4e-06
                          CHANNELS 3 Zrotation Yrotation Xrotation
                        }
                      }
                    }
                  }
                  JOINT LeftHandIndex1
                  {
                    OFFSET 3.247786 2.352677 0.137192
                    CHANNELS 3 Zrotation Yrotation Xrotation
                    JOINT LeftHandIndex2
                    {
                      OFFSET 6.367095 1e-06 0.0
                      CHANNELS 3 Zrotation Yrotation Xrotation
                      JOINT LeftHandIndex3
                      {
                        OFFSET 3.662364 0.0 0.0
                        CHANNELS 3 Zrotation Yrotation Xrotation
                        JOINT LeftHandIndex4
                        {
                          OFFSET 2.329242 4e-06 -4e-06
                          CHANNELS 3 Zrotation Yrotation Xrotation
                          JOINT LeftHandIndexEnd
                          {
                            OFFSET 2.767823 1e-06 0.0
                            CHANNELS 3 Zrotation Yrotation Xrotation
                          }
                        }
                      }
                    }
                  }
                  JOINT LeftHandMiddle1
                  {
                    OFFSET 3.163612 0.945023 -0.406112
                    CHANNELS 3 Zrotation Yrotation Xrotation
                    JOINT LeftHandMiddle2
                    {
                      OFFSET 6.276789 3e-06 0.0
                      CHANNELS 3 Zrotation Yrotation Xrotation
                      JOINT LeftHandMiddle3
                      {
                        OFFSET 4.35652 -1e-06 4e-06
                        CHANNELS 3 Zrotation Yrotation Xrotation
                        JOINT LeftHandMiddle4
                        {
                          OFFSET 2.996877 0.0 8e-06
                          CHANNELS 3 Zrotation Yrotation Xrotation
                          JOINT LeftHandMiddleEnd
                          {
                            OFFSET 2.323256 3e-06 -4e-06
                            CHANNELS 3 Zrotation Yrotation Xrotation
                          }
                        }
                      }
                    }
                  }
                  JOINT LeftHandRing1
                  {
                    OFFSET 2.882606 -0.309162 0.107445
                    CHANNELS 3 Zrotation Yrotation Xrotation
                    JOINT LeftHandRing2
                    {
                      OFFSET 6.033198 0.0 4e-06
                      CHANNELS 3 Zrotation Yrotation Xrotation
                      JOINT LeftHandRing3
                      {
                        OFFSET 4.350578 3e-06 0.0
                        CHANNELS 3 Zrotation Yrotation Xrotation
                        JOINT LeftHandRing4
                        {
                          OFFSET 2.651321 2e-06 -7e-06
                          CHANNELS 3 Zrotation Yrotation Xrotation
                          JOINT LeftHandRingEnd
                          {
                            OFFSET 1.937663 1e-06 -4e-06
                            CHANNELS 3 Zrotation Yrotation Xrotation
                          }
                        }
                      }
                    }
                  }
                  JOINT LeftHandPinky1
                  {
                    OFFSET 2.865315 -1.525436 0.575687
                    CHANNELS 3 Zrotation Yrotation Xrotation
                    JOINT LeftHandPinky2
                    {
                      OFFSET 5.54936 1e-06 -8e-06
                      CHANNELS 3 Zrotation Yrotation Xrotation
                      JOINT LeftHandPinky3
                      {
                        OFFSET 3.070974 0.0 -4e-06
                        CHANNELS 3 Zrotation Yrotation Xrotation
                        JOINT LeftHandPinky4
                        {
                          OFFSET 1.549672 1e-06 0.0
                          CHANNELS 3 Zrotation Yrotation Xrotation
                          JOINT LeftHandPinkyEnd
                          {
                            OFFSET 1.952123 0.0 0.0
                            CHANNELS 3 Zrotation Yrotation Xrotation
                          }
                        }
                      }
                    }
                  }
                }
              }
            }
          }
          JOINT RightShoulder
          {
            OFFSET 23.161716 5.296122 -1.380114
            CHANNELS 3 Zrotation Yrotation Xrotation
            JOINT RightArm
            {
              OFFSET -16.027195 -2e-06 1.1e-05
              CHANNELS 3 Zrotation Yrotation Xrotation
              JOINT RightForeArm
              {
                OFFSET -28.736639 4e-06 2e-06
                CHANNELS 3 Zrotation Yrotation Xrotation
                JOINT RightHand
                {
                  OFFSET -27.133619 6e-06 0.0
                  CHANNELS 3 Zrotation Yrotation Xrotation
                  JOINT RightHandThumb1
                  {
                    OFFSET -2.274328 -3.351035 -0.83067
                    CHANNELS 3 Zrotation Yrotation Xrotation
                    JOINT RightHandThumb2
                    {
                      OFFSET -4.703594 -3e-06 2e-06
                      CHANNELS 3 Zrotation Yrotation Xrotation
                      JOINT RightHandThumb3
                      {
                        OFFSET -2.794935 -4e-06 -3e-06
                        CHANNELS 3 Zrotation Yrotation Xrotation
                        JOINT RightHandThumbEnd
                        {
                          OFFSET -3.183852 4e-06 1e-06
                          CHANNELS 3 Zrotation Yrotation Xrotation
                        }
                      }
                    }
                  }
                  JOINT RightHandIndex1
                  {
                    OFFSET -3.253496 -2.33755 -0.127667
                    CHANNELS 3 Zrotation Yrotation Xrotation
                    JOINT RightHandIndex2
                    {
                      OFFSET -6.344434 0.0 0.0
                      CHANNELS 3 Zrotation Yrotation Xrotation
                      JOINT RightHandIndex3
                      {
                        OFFSET -3.654871 0.0 -8e-06
                        CHANNELS 3 Zrotation Yrotation Xrotation
                        JOINT RightHandIndex4
                        {
                          OFFSET -2.327586 -1e-06 0.0
                          CHANNELS 3 Zrotation Yrotation Xrotation
                          JOINT RightHandIndexEnd
                          {
                            OFFSET -2.770001 3e-06 8e-06
                            CHANNELS 3 Zrotation Yrotation Xrotation
                          }
                        }
                      }
                    }
                  }
                  JOINT RightHandMiddle1
                  {
                    OFFSET -3.168223 -0.944764 0.411762
                    CHANNELS 3 Zrotation Yrotation Xrotation
                    JOINT RightHandMiddle2
                    {
                      OFFSET -6.266691 -1e-06 -4e-06
                      CHANNELS 3 Zrotation Yrotation Xrotation
                      JOINT RightHandMiddle3
                      {
                        OFFSET -4.348901 0.0 0.0
                        CHANNELS 3 Zrotation Yrotation Xrotation
                        JOINT RightHandMiddle4
                        {
                          OFFSET -3.00024 2e-06 -4e-06
                          CHANNELS 3 Zrotation Yrotation Xrotation
                          JOINT RightHandMiddleEnd
                          {
                            OFFSET -2.321477 -4e-06 -4e-06
                            CHANNELS 3 Zrotation Yrotation Xrotation
                          }
                        }
                      }
                    }
                  }
                  JOINT RightHandRing1
                  {
                    OFFSET -2.885654 0.293261 -0.119232
                    CHANNELS 3 Zrotation Yrotation Xrotation
                    JOINT RightHandRing2
                    {
                      OFFSET -6.032835 -1e-06 -4e-06
                      CHANNELS 3 Zrotation Yrotation Xrotation
                      JOINT RightHandRing3
                      {
                        OFFSET -4.33881 0.0 -4e-06
                        CHANNELS 3 Zrotation Yrotation Xrotation
                        JOINT RightHandRing4
                        {
                          OFFSET -2.654903 -4e-06 -4e-06
                          CHANNELS 3 Zrotation Yrotation Xrotation
                          JOINT RightHandRingEnd
                          {
                            OFFSET -1.935122 0.0 4e-06
                            CHANNELS 3 Zrotation Yrotation Xrotation
                          }
                        }
                      }
                    }
                  }
                  JOINT RightHandPinky1
                  {
                    OFFSET -2.866241 1.503904 -0.60527
                    CHANNELS 3 Zrotation Yrotation Xrotation
                    JOINT RightHandPinky2
                    {
                      OFFSET -5.553177 -2e-06 0.0
                      CHANNELS 3 Zrotation Yrotation Xrotation
                      JOINT RightHandPinky3
                      {
                        OFFSET -3.062664 -1e-06 -4e-06
                        CHANNELS 3 Zrotation Yrotation Xrotation
                        JOINT RightHandPinky4
                        {
                          OFFSET -1.546529 2e-06 4e-06
                          CHANNELS 3 Zrotation Yrotation Xrotation
                          JOINT RightHandPinkyEnd
                          {
                            OFFSET -1.952341 0.0 -4e-06
                            CHANNELS 3 Zrotation Yrotation Xrotation
                          }
                        }
                      }
                    }
                  }
                }
              }
            }
          }
        }
      }
    }
    JOINT LeftLeg
    {
      OFFSET -8.443107 2.567604 10.043214
      CHANNELS 3 Zrotation Yrotation Xrotation
      JOINT LeftShin
      {
        OFFSET 43.229198 1e-06 -1e-06
        CHANNELS 3 Zrotation Yrotation Xrotation
        JOINT LeftFoot
        {
          OFFSET 42.298611 1e-06 1e-06
          CHANNELS 3 Zrotation Yrotation Xrotation
          JOINT LeftToeBase
          {
            OFFSET 14.165858 1e-06 0.0
            CHANNELS 3 Zrotation Yrotation Xrotation
            JOINT LeftToeEnd
            {
              OFFSET 6.7141 -0.234461 0.0
              CHANNELS 3 Zrotation Yrotation Xrotation
            }
          }
        }
      }
    }
    JOINT RightLeg
    {
      OFFSET -8.303923 2.592729 -10.047278
      CHANNELS 3 Zrotation Yrotation Xrotation
      JOINT RightShin
      {
        OFFSET -43.369682 0.0 1e-06
        CHANNELS 3 Zrotation Yrotation Xrotation
        JOINT RightFoot
        {
          OFFSET -42.260784 4e-06 2e-06
          CHANNELS 3 Zrotation Yrotation Xrotation
          JOINT RightToeBase
          {
            OFFSET -14.222245 -2e-06 -1e-06
            CHANNELS 3 Zrotation Yrotation Xrotation
            JOINT RightToeEnd
            {
              OFFSET -6.660062 0.232574 -2e-06
              CHANNELS 3 Zrotation Yrotation Xrotation
            }
          }
        }
      }
    }
  }
}
MOTION
Frames: 4
Frame Time: 0.03333333333333333
0.0 0.0 0.0 0.0 -0.0 0.0 -11.718403 98.110764 360.491882 92.703308 -0.434865 87.521919 2.273104 -1.256425 -1.144496 -11.227869 -1.187062 -3.438502 23.761871 2.406665 -5.392374 29.963873 6.63128 2.620963 -2.566814 -0.821911 -1.581761 -31.030014 -4.368797 0.342173 7e-06 0.0 -1e-06 -0.085347 0.032808 -0.142218 -0.128339 0.051379 -0.127301 -0.130287 0.014936 -0.151969 -54.54073 -81.018036 76.965324 14.153542 -43.572422 21.304852 58.138687 -0.827531 -0.25256 0.156064 10.911151 -25.101612 17.636625 -26.322725 52.411182 -19.466654 -14.395597 29.410378 -1e-06 -8.774821 -2e-06 16.227106 -18.396925 5.932662 -0.609777 -1.795652 -3.889328 -4.807088 -11.046807 -2.937847 4e-06 -20.976011 -0.0 -5.019968 -25.033552 -4.031879 5e-06 2e-06 1e-06 -10.634531 -5.686968 -3.565586 10.573271 -17.922947 -3.113898 2e-06 -13.821205 -0.0 -0.50178 -31.181488 -4.027012 -11.608036 -59.887127 7.298391 -13.982713 -7.150195 -2.875041 13.772728 -8.40149 -3.218241 0.347735 -34.211544 0.771657 -0.963028 -17.733366 2.621022 -1e-06 -1e-06 -1e-06 -17.346416 -20.095207 -4.201779 21.757555 -1.638374 3.866426 2e-06 -6.338821 1e-06 -1.69759 -22.591738 -6.194004 0.0 -3e-06 -4e-06 65.733925 -72.309601 137.498428 26.409414 -24.514057 34.158409 52.970066 0.407898 0.45988 4.79025 5.950534 -17.505106 22.182108 -20.375883 49.933308 -16.701807 -16.743526 28.476524 -2e-06 -12.690598 -1e-06 16.369137 -17.599487 2.528347 -0.105919 -1.513854 -4.275883 -5.03904 -5.61287 -2.953558 4e-06 -11.02052 -1e-06 -6.111295 -15.895328 -3.840469 -0.0 1e-06 -0.0 -10.283367 -5.680287 -4.341838 11.028292 -11.302402 -2.372633 -1.384268 -14.238576 -6.32012 -0.625439 -26.924179 -3.827602 -4.151993 -49.557388 -3.956073 -13.708521 -7.363474 -3.72094 18.141146 -14.052738 -3.242673 6e-06 -18.787266 -0.0 -0.429713 -8.456042 2.555501 1e-06 1e-06 -1e-06 -15.923532 -20.094481 -5.473583 30.419207 -7.190823 1.735922 3e-06 -8.162924 -2e-06 -1.861902 -22.861467 -6.167943 2e-06 -6e-06 -2e-06 -165.530487 2.826483 -9.131239 12.736602 -0.118011 0.320636 -78.771248 4.372313 -1.257881 -10.906315 1.49481 2.094288 -0.999999 -0.0 -0.0 -21.058294 -5.332265 -11.03075 9.81953 0.04339 -0.256457 -59.275749 3.578635 -7.071255 -7.882966 0.714298 1.553367 -1.000001 -0.0 -0.0 
0.0 0.0 0.0 0.0 -0.0 0.0 -12.645215 98.478546 363.270752 91.994545 -0.67046 88.164566 2.153912 -0.823199 -1.153982 -11.301251 -1.104148 -3.373314 23.586807 2.747397 -5.413445 30.093441 6.828558 2.648003 -2.633103 -0.873738 -1.80987 -31.246832 -4.266137 -0.0008 6e-06 0.0 0.0 -0.104925 0.024826 -0.1345 -0.083321 0.041854 -0.102349 -0.095179 0.012605 -0.158666 -54.335388 -80.833138 76.799271 14.333077 -44.200588 21.861513 58.821903 -0.584861 -0.489514 0.023066 11.13517 -25.058363 17.636629 -26.322733 52.411186 -19.46666 -14.395597 29.410385 0.0 -8.774821 -4e-06 16.201908 -18.397488 5.920814 -0.609777 -1.795651 -3.889328 -4.807089 -11.046811 -2.937847 3e-06 -20.976019 0.0 -5.019975 -25.033556 -4.031878 5e-06 1e-06 1e-06 -10.634535 -5.686971 -3.565587 10.573271 -17.922947 -3.113898 1e-06 -13.821209 1e-06 -0.50178 -31.181505 -4.027012 -11.500754 -59.748356 7.215176 -13.982712 -7.150197 -2.875042 13.772727 -8.401491 -3.218242 0.347733 -34.211555 0.771656 -0.96303 -17.73337 2.621022 -0.0 -1e-06 -0.0 -17.346422 -20.095217 -4.20178 21.757557 -1.638373 3.866431 2e-06 -6.338823 -1e-06 -1.697592 -22.591747 -6.194003 0.0 -3e-06 -3e-06 67.331551 -72.6511 135.840668 26.347328 -24.904118 34.107983 52.827915 0.212364 0.369339 4.693379 6.150284 -17.978203 22.182114 -20.375896 49.933327 -16.701813 -16.74353 28.476534 -2e-06 -12.690601 -1e-06 16.415154 -17.654068 2.528511 -0.105919 -1.513856 -4.275882 -5.039041 -5.612871 -2.953559 4e-06 -11.020523 -1e-06 -6.111298 -15.895334 -3.840468 -0.0 1e-06 -1e-06 -10.283371 -5.680288 -4.341835 11.028295 -11.302406 -2.372634 -1.384269 -14.238583 -6.320121 -0.625438 -26.924192 -3.827601 -4.291696 -49.652332 -3.819026 -13.708526 -7.363477 -3.72094 18.141148 -14.052739 -3.242673 5e-06 -18.78727 -1e-06 -0.429711 -8.456045 2.555503 -0.0 2e-06 -1e-06 -15.923536 -20.094482 -5.473585 30.419214 -7.190826 1.735928 2e-06 -8.162925 -0.0 -1.861902 -22.861469 -6.167943 -0.0 -4e-06 -1e-06 -165.708191 1.090048 -9.796785 15.931298 -0.239946 0.495447 -76.473343 5.556841 -1.288168 -13.93354 1.675904 2.0892 -1.0 0.0 -0.0 -20.76095 -4.52648 -11.80581 12.900493 0.116767 -0.333557 -61.367611 3.314894 -5.325657 -7.007713 0.721641 1.583305 -1.000001 -1e-06 0.0 
0.0 0.0 0.0 0.0 -0.0 0.0 -13.676466 98.801147 366.030518 91.453941 -0.801487 88.815948 2.044462 -0.485041 -1.066897 -11.328669 -1.016383 -3.311349 23.338812 2.751297 -5.363247 30.196503 7.050845 2.727268 -2.612572 -0.925011 -2.040484 -31.459871 -4.104375 -0.269325 5e-06 -0.0 -0.0 -0.097478 0.022742 -0.14564 -0.057262 0.039902 -0.12031 -0.076848 0.012434 -0.163544 -54.443523 -80.591469 76.948151 14.549028 -44.558922 22.496017 59.508522 -0.404528 -0.498735 -0.17463 11.16606 -24.568123 17.636627 -26.322725 52.411201 -19.466656 -14.395596 29.410389 -0.0 -8.77482 -2e-06 16.114349 -18.290953 5.926061 -0.609776 -1.795652 -3.889328 -4.807087 -11.046808 -2.937852 3e-06 -20.976015 -1e-06 -5.019972 -25.033552 -4.03188 6e-06 1e-06 1e-06 -10.634533 -5.68697 -3.565589 10.573272 -17.922947 -3.113901 1e-06 -13.821209 -0.0 -0.501778 -31.181501 -4.027016 -11.389282 -59.60894 7.078919 -13.982714 -7.150198 -2.875046 13.772727 -8.401489 -3.218242 0.347734 -34.211544 0.771653 -0.963031 -17.733368 2.62102 1e-06 -0.0 -0.0 -17.346416 -20.095217 -4.20178 21.757555 -1.638373 3.866428 2e-06 -6.338822 1e-06 -1.69759 -22.59174 -6.194006 -1e-06 -3e-06 -5e-06 69.03775 -73.136757 134.036728 26.506578 -25.788795 34.124836 52.257965 0.288911 0.363708 4.583665 6.327696 -17.958448 22.182108 -20.375891 49.933315 -16.701807 -16.743528 28.476522 -2e-06 -12.690601 2e-06 16.49753 -17.677927 2.484317 -0.105919 -1.513856 -4.275878 -5.039042 -5.612872 -2.953557 4e-06 -11.020524 -2e-06 -6.1113 -15.89533 -3.840469 0.0 -1e-06 1e-06 -10.283369 -5.680288 -4.341835 11.028294 -11.302402 -2.372634 -1.38427 -14.23858 -6.320121 -0.62544 -26.924187 -3.827603 -4.36175 -49.664333 -3.829078 -13.708525 -7.363477 -3.720936 18.141148 -14.052739 -3.242673 3e-06 -18.78727 -2e-06 -0.429711 -8.456042 2.555504 0.0 1e-06 -2e-06 -15.923538 -20.094482 -5.473583 30.41921 -7.190825 1.735929 1e-06 -8.162924 -1e-06 -1.861904 -22.861469 -6.167942 0.0 -6e-06 -1e-06 -166.50528 -0.794151 -10.42536 20.213348 -0.315141 0.639364 -73.99646 6.600742 -1.506402 -16.759947 1.785618 2.061997 -0.999999 -0.0 0.0 -19.765795 -3.769396 -12.538526 14.823707 0.146444 -0.347604 -64.787155 2.983411 -4.255906 -6.444937 0.666125 1.589172 -1.000001 -0.0 -0.0 
0.0 0.0 0.0 0.0 -0.0 0.0 -14.752836 99.150345 368.715088 91.054077 -0.776661 89.435997 2.014837 -0.190527 -0.968036 -11.319939 -0.954439 -3.152014 23.065954 2.512911 -5.210653 30.313845 7.16829 2.838214 -2.623278 -0.994589 -2.253819 -31.442625 -3.869568 -0.656009 5e-06 -0.0 1e-06 -0.086669 0.019921 -0.140315 -0.048324 0.03676 -0.119206 -0.076475 0.011361 -0.153911 -55.29248 -80.231567 77.912926 15.132819 -44.730244 22.780029 60.08493 -0.364832 -0.580749 -0.32332 11.046224 -23.957945 17.636625 -26.322723 52.411182 -19.466654 -14.395597 29.410381 -1e-06 -8.774819 -3e-06 16.013632 -18.234201 5.928762 -0.609776 -1.795653 -3.889326 -4.807089 -11.046807 -2.93785 4e-06 -20.976015 -0.0 -5.019969 -25.033554 -4.031879 5e-06 0.0 1e-06 -10.63453 -5.686968 -3.565587 10.57327 -17.922945 -3.113897 2e-06 -13.821205 -0.0 -0.501777 -31.181498 -4.027015 -11.213351 -59.416752 6.934037 -13.982711 -7.150197 -2.875043 13.772726 -8.40149 -3.21824 0.347735 -34.211544 0.771653 -0.96303 -17.73337 2.621022 -0.0 1e-06 -1e-06 -17.346413 -20.095213 -4.201782 21.757555 -1.638374 3.866427 3e-06 -6.338822 1e-06 -1.69759 -22.591738 -6.194006 -1e-06 -5e-06 -2e-06 71.373589 -73.67955 131.552078 26.885029 -26.99205 33.931839 51.704788 0.254266 0.318541 4.399092 6.608353 -17.573744 22.182119 -20.3759 49.933323 -16.701818 -16.74353 28.476532 -5e-06 -12.690604 0.0 16.523193 -17.626503 2.473676 -0.105919 -1.513856 -4.275882 -5.039041 -5.612872 -2.953557 6e-06 -11.020525 -3e-06 -6.111298 -15.895334 -3.840469 0.0 1e-06 1e-06 -10.283374 -5.680289 -4.341844 11.028299 -11.302407 -2.372633 -1.384269 -14.238583 -6.320121 -0.625437 -26.924194 -3.827599 -4.451796 -49.642586 -3.742726 -13.708527 -7.363476 -3.720942 18.141153 -14.052742 -3.242676 6e-06 -18.787273 1e-06 -0.429709 -8.456045 2.555504 1e-06 1e-06 -2e-06 -15.923536 -20.094486 -5.47359 30.419222 -7.190832 1.735925 2e-06 -8.162928 -0.0 -1.861901 -22.861479 -6.167942 0.0 -4e-06 -1e-06 -168.168304 -2.814936 -11.100776 26.169075 -0.383494 0.736986 -71.372398 7.643418 -1.594663 -19.203264 1.849146 2.040146 -0.999998 -0.0 0.0 -18.364788 -3.023753 -13.163509 16.070671 0.186285 -0.362035 -67.457077 2.564937 -3.283067 -6.050671 0.629483 1.593837 -1.000002 0.0 1e-06 
